<svg version="1.1" xmlns="http://www.w3.org/2000/svg" viewBox="0 0 1074.818181818182 1189.6666666666665" width="1074.818181818182" height="1189.6666666666665">
  <!-- svg-source:excalidraw -->
  
  <defs>
    <style>
      @font-face {
        font-family: "Virgil";
        src: url("https://excalidraw.com/FG_Virgil.woff2");
      }
      @font-face {
        font-family: "Cascadia";
        src: url("https://excalidraw.com/Cascadia.woff2");
      }
    </style>
  </defs>
  <rect x="0" y="0" width="1074.818181818182" height="1189.6666666666665" fill="#ffffff"></rect><g transform="translate(48.99999999999966 627.6666666666665) rotate(0 171 120)"><path d="M1.2845724170434338 0.7423575036066427 C127.2357725785648 -0.06348447941998014, 251.88360081189862 0.23133984061514362, 341.05396766273867 0.1528112593663111 M0.00515544842204526 -0.5377876194532222 C117.92444586012402 2.0174523295945916, 234.85292923539487 1.2170504970325504, 341.82691905986434 -0.009374888013369588 M341.1950450614904 -0.7741807957441881 C343.53647090389086 65.25034131925297, 341.3204802582722 132.2342904779437, 343.2590054720465 239.07167715669488 M341.9968896935782 -0.1432412847996317 C342.68537197725914 80.0372610867775, 341.6860480282732 160.15732026347322, 342.578037417055 240.1599906622463 M342.92205907666437 239.40889606660988 C243.72222624417984 240.01910097709393, 146.9913123228632 242.34386450866162, 0.09431799240053741 240.01223356634233 M342.12173527521026 239.54824567312275 C268.08522705753325 237.5067019212569, 195.41707124077868 237.78082658822643, 0.18748782831665944 240.31803107346977 M1.0351284135512189 238.56252253088306 C-0.14249839205906545 148.884824644341, 1.2062433072166665 58.555489705301014, -1.4079654693344756 0.20994975552367418 M-0.6487377478978671 240.26933122205656 C-0.08494009413825926 146.6086376957665, -0.48456849865245283 51.35425377659697, 0.3220443980566226 -0.6769734087707363" stroke="#000000" stroke-width="1" fill="none"></path></g><g transform="translate(49.99999999999966 670.6666666666665) rotate(0 171 73)"><path d="M-1.0984668101190194 -0.8166952551878108 C114.16644820409243 -2.9152288113191984, 228.24331477146703 -0.8946024016797925, 342.7073997254136 0.8053134397948607 M-0.1214153376605816 -0.023461813935308898 C84.3707668314236 -0.7627377497079436, 168.10462841449018 -1.1875783247749152, 342.1771803512561 0.23210588212842415 M343.16121815517545 1.1615684740245342 C341.4564250144735 37.858200398460035, 345.32989567849785 75.69577394276858, 342.211683858186 144.19151849672198 M341.17564628086984 -0.3783761318773031 C342.11244063738735 35.34856593236327, 342.4657987273112 69.25921809487045, 341.98260775767267 146.45907061733305 M340.9903120348911 145.7838682268605 C245.619424475116 146.2643996905541, 149.86644217133613 145.370837301698, 1.055017516740216 145.46719856698172 M341.81347127270107 145.5485461520054 C217.98808703521365 144.92482947994412, 95.49262331576142 145.2492221179677, 0.45772618560299194 145.43752444202818 M0.9293801672756672 144.11005456373096 C-1.3356825274601578 105.71223881952464, -1.104187266267836 69.04887055456638, -1.5788928382098675 1.2638067714869976 M-0.43895878829061985 145.0203304234892 C-0.875619432516396 93.4216084882617, -2.1272379966452717 39.86023434661328, 0.681978976354003 -0.19283241592347622" stroke="#000000" stroke-width="2" fill="none"></path></g><g transform="translate(60.99999999999966 639.1666666666665) rotate(0 34 13)"><text x="0" y="18" font-family="Virgil, Segoe UI Emoji" font-size="20px" fill="#000000" text-anchor="start" style="white-space: pre;" direction="ltr">HEader</text></g><g transform="translate(57.99999999999966 832.6666666666665) rotate(0 70 13)"><text x="0" y="18" font-family="Virgil, Segoe UI Emoji" font-size="20px" fill="#000000" text-anchor="start" style="white-space: pre;" direction="ltr">Parent Header</text></g><g><g transform="translate(48.99999999999966 700.6666666666665) rotate(0 170.42324781486298 -0.07881376886274438)"><path d="M0.563096708804369 -1.1587693043053149 C57.455810565501444 -1.1681926794350146, 284.52265276387334 -0.828435070067644, 341.4469118781388 -0.5167303629219532 M-0.6004162484128028 0.8472728655952961 C56.07795109423808 1.0372699667233976, 283.2084265959542 1.1002133063692598, 340.2084951505344 0.7494114477653055" stroke="#000000" stroke-width="1" fill="none"></path></g></g><g transform="translate(61.99999999999966 673.6666666666665) rotate(0 21 13)"><text x="0" y="18" font-family="Virgil, Segoe UI Emoji" font-size="20px" fill="#000000" text-anchor="start" style="white-space: pre;" direction="ltr">Salt</text></g><g transform="translate(56.99999999999966 713.6666666666665) rotate(0 28.5 13)"><text x="0" y="18" font-family="Virgil, Segoe UI Emoji" font-size="20px" fill="#000000" text-anchor="start" style="white-space: pre;" direction="ltr">Data</text></g><g transform="translate(53.49999999999966 939.6666666666665) rotate(0 171 120)"><path d="M-0.3827558024885311 0.556328476111783 C131.4096649172474 -0.15067983815328384, 264.43956493931336 0.14407616528180328, 341.5467825036758 0.6428205336338415 M-0.4569597389787964 0.41547015451645175 C127.28578564005716 -0.4263740058687604, 254.70469641857505 0.5694282470542751, 341.9368605136035 -0.6592382458697147 M340.63408203968726 -0.03841425514603406 C340.32117789529013 66.74174915278172, 342.0659497523036 131.15087808316278, 341.2833039034523 239.7285555452316 M341.2279230744234 -0.32662650667684895 C341.0216035715461 71.25210359384698, 341.80195494515766 142.22297659409386, 341.73977148053643 239.70348497532314 M342.45633888395434 238.79992655902166 C251.16810289862323 242.7850020331791, 159.62996732060265 242.89587505176004, 0.25569611338218295 240.23654187135634 M341.4764076177334 239.61330920903853 C267.04934508204036 240.54156339167665, 191.11056902537032 241.22499431654336, 0.21615530021223497 240.50596454479586 M-0.5558086462920829 239.55202683486317 C-0.6482590583328978 173.95627204392503, 0.4278024389851316 110.0487783823738, 1.0103493102616146 -0.9279003616006448 M0.10203613158166036 240.57128757832723 C-1.6281451551161714 154.55415794486328, -0.4408603573941895 68.82096303656176, -0.3039066509115733 -0.42953815255576" stroke="#000000" stroke-width="1" fill="none"></path></g><g transform="translate(54.49999999999966 982.6666666666665) rotate(0 171 73)"><path d="M0.556328476111783 -0.6888688081185951 C74.70928924930227 0.8970099108367461, 150.1255023947477 0.20129492593116943, 342.6428205336338 0.9586270391666276 M0.41547015451645175 -0.028233736354880776 C108.15300479884476 1.6394599730584827, 217.7781258370627 1.499662820910975, 341.3407617541303 -0.16508797700150532 M341.9539011605084 -1.2370810993015766 C343.69713119957595 39.92643835879863, 341.7561372945085 77.27936135083438, 341.67425440624356 145.934443783015 M341.60803345404565 -0.6171397622674704 C341.32484030965713 40.7310214959085, 341.03388649467377 80.51112283281982, 341.6441685911268 145.6620622817427 M340.7999265590216 146.2106329342233 C260.2104242423458 146.49536688336465, 177.95394881013195 147.03603560494406, 0.23654187135633375 144.9395778415885 M341.61330920903856 146.31098229921932 C248.19338637100032 143.84315751237645, 155.18670685121697 144.42546935286046, 0.505964544795864 145.80907704115478 M-0.5375880114734173 144.08909816667438 C-2.362203655876219 108.47260426990687, -0.9410225731506943 73.39683226644992, -1.1135223023593426 1.1649428121745586 M0.6855708714574575 145.19153612293303 C2.0879368058964607 95.84858016222715, 2.3832905165478584 44.09979572556912, -0.5154651645570993 -0.018958335742354393" stroke="#000000" stroke-width="2" fill="none"></path></g><g transform="translate(65.49999999999966 951.1666666666665) rotate(0 34 13)"><text x="0" y="18" font-family="Virgil, Segoe UI Emoji" font-size="20px" fill="#000000" text-anchor="start" style="white-space: pre;" direction="ltr">HEader</text></g><g transform="translate(62.49999999999966 1144.6666666666665) rotate(0 70 13)"><text x="0" y="18" font-family="Virgil, Segoe UI Emoji" font-size="20px" fill="#000000" text-anchor="start" style="white-space: pre;" direction="ltr">Parent Header</text></g><g><g transform="translate(53.49999999999966 1012.6666666666665) rotate(0 170.7604753307998 0.1005675359163547)"><path d="M-0.37284043505787845 0.21935932114720336 C56.52558378502727 0.2548870511353015, 284.734736841172 -0.5179397873580456, 341.89379109665754 -0.40997324511408806 M1.6322796071972698 -0.7110809805896134 C58.31935525401495 -0.4525334441568703, 284.1418548138347 0.9637186125013979, 340.8899859587755 0.9122160524223002" stroke="#000000" stroke-width="1" fill="none"></path></g></g><g transform="translate(66.49999999999966 985.6666666666665) rotate(0 21 13)"><text x="0" y="18" font-family="Virgil, Segoe UI Emoji" font-size="20px" fill="#000000" text-anchor="start" style="white-space: pre;" direction="ltr">Salt</text></g><g transform="translate(61.49999999999966 1025.6666666666665) rotate(0 28.5 13)"><text x="0" y="18" font-family="Virgil, Segoe UI Emoji" font-size="20px" fill="#000000" text-anchor="start" style="white-space: pre;" direction="ltr">Data</text></g><g><g transform="translate(211.23318991476333 930.6666666666665) rotate(0 -0.7896438422474716 -26.178578075608215)"><path d="M-0.061524374037980945 -1.0430591873824595 C-0.18581958815273075 -9.771039046098789, 0.11410093382912694 -43.002319762359065, 0.020015833239767744 -51.857909636944534 M-1.5529633997473866 1.0237307939026503 C-1.8944142626300846 -8.054570742438857, -0.8590118075909187 -44.297460849375156, -0.8807975532098227 -53.38088694511913" stroke="#000000" stroke-width="2" fill="none"></path></g><g transform="translate(211.23318991476333 930.6666666666665) rotate(0 -0.7896438422474716 -26.178578075608215)"><path d="M6.088532294431282 -28.202437950234238 C6.456063885942541 -38.389414515511916, -0.5764369780261687 -45.87345170012594, -0.6251491078718119 -52.974782034000384 M7.190591045939875 -28.72444387891454 C5.598873268714085 -34.221603437487154, 2.5674717717633673 -41.32516212227932, -1.0465853748454266 -54.124825117355215" stroke="#000000" stroke-width="2" fill="none"></path></g><g transform="translate(211.23318991476333 930.6666666666665) rotate(0 -0.7896438422474716 -26.178578075608215)"><path d="M-12.036710449716786 -28.460754574021163 C-5.073835138033155 -38.54445865514153, -5.512090061858162 -45.93451622404925, -0.6251491078718119 -52.974782034000384 M-10.934651698208192 -28.982760502701463 C-7.911620416746995 -34.38277555180369, -6.329998452802144 -41.420590529728635, -1.0465853748454266 -54.124825117355215" stroke="#000000" stroke-width="2" fill="none"></path></g></g><g transform="translate(44.58333333333326 23.16666666666663) rotate(0 170.99999999999994 120)"><path d="M0.3878189945905074 -0.2411137216149911 C116.8060020434837 -1.165091078272996, 231.38772102239247 -1.0912886710674619, 342.92835819928234 1.0143335581559074 M-0.6546997261455587 0.028625627730958905 C74.90890669141578 -0.5652145366381236, 151.13183029031944 0.10175335274197375, 341.49137037640395 0.2228537937472276 M341.6633522726778 -0.9334455705607012 C342.3427550763522 76.71612173236369, 340.75151205750353 157.54427091687225, 341.2006793760439 241.20996901621675 M342.78714087742856 -0.8273016475287043 C342.06062617829616 51.47967846297057, 342.3221521380932 104.73244381901809, 342.0598839210042 240.76541479240663 M342.8653063263062 240.60455232593415 C223.56443834382776 241.05935294350292, 104.08516535572033 242.6202862817723, 0.4781314049451693 240.0978817082716 M341.5053395792437 240.62922967276054 C250.4354547045965 239.26039960164192, 157.80321093614515 240.01926849953796, 0.013935515254182367 240.1068192346371 M0.5031578882883861 238.84772956868864 C1.3137645930594188 171.84914543013238, 2.5369566105114205 104.90771920196887, 1.6155587724315001 0.9031360409488604 M-0.8202881675021686 240.71430250282114 C-1.1814476596036143 163.904403130004, -1.0778474072879738 89.34547674223701, 0.7357355426918231 -0.6408587230073772" stroke="#000000" stroke-width="1" fill="none"></path></g><g transform="translate(45.58333333333326 66.16666666666663) rotate(0 170.99999999999994 73)"><path d="M-0.2411137216149911 0.5843871227632388 C102.99556580153201 -1.718679299798233, 205.44320630596715 0.26518771853257916, 343.0143335581559 -1.0545022561798705 M0.028625627730958905 -0.5053493988825134 C72.92909973119012 2.5423911731406585, 147.15180240956917 1.7304434398217334, 342.2228537937472 0.1642067724253602 M340.87982319667935 -0.054473090916872025 C341.2432860526815 44.66954759694636, 344.7073328885809 92.30794740468264, 343.4520174153149 144.33265466615558 M341.00720069371164 0.58468615449965 C340.7345610750094 41.58427607640624, 342.2477092039958 81.44335734657943, 342.91853228770196 146.4720596615225 M342.60455232593415 146.3088787678975 C211.48006290859075 147.05372002184342, 83.35728597536753 147.95780522292876, 0.09788170827158837 145.58137837784292 M342.6292296727606 146.24312102457773 C261.2090959783396 143.72680493712105, 181.70703306289124 144.32219687626764, 0.10681923463711067 145.86725356796964 M-1.3827765099704266 145.99508721753955 C-0.6076430529728531 113.28370106928051, -0.30119661990553137 79.5801999002695, 1.0838040001690388 0.30289215967059135 M0.857195233926177 145.67113685049117 C0.16951446335762732 95.37115377634763, 1.4604984382912516 46.0342997457832, -0.7690593842417002 0.7344632688909769" stroke="#000000" stroke-width="2" fill="none"></path></g><g transform="translate(56.58333333333326 34.66666666666663) rotate(0 34 13)"><text x="0" y="18" font-family="Virgil, Segoe UI Emoji" font-size="20px" fill="#000000" text-anchor="start" style="white-space: pre;" direction="ltr">HEader</text></g><g transform="translate(53.58333333333326 228.16666666666663) rotate(0 70 13)"><text x="0" y="18" font-family="Virgil, Segoe UI Emoji" font-size="20px" fill="#000000" text-anchor="start" style="white-space: pre;" direction="ltr">Parent Header</text></g><g><g transform="translate(44.58333333333326 96.16666666666663) rotate(0 171.01384701072698 0.10176773421932239)"><path d="M0.5624048642814159 -0.9547962717711925 C57.70361701771618 -0.9029378227889537, 285.56997451111675 0.8396261163055898, 342.6291653327644 0.839777869731188 M-0.6014713113103063 1.158331740209833 C56.45585593386553 0.8317836231086406, 284.8055922605004 -0.6259933844115585, 342.0114316688385 -0.8419134974386543" stroke="#000000" stroke-width="1" fill="none"></path></g></g><g transform="translate(57.58333333333326 69.16666666666663) rotate(0 21 13)"><text x="0" y="18" font-family="Virgil, Segoe UI Emoji" font-size="20px" fill="#000000" text-anchor="start" style="white-space: pre;" direction="ltr">Salt</text></g><g transform="translate(52.58333333333326 109.16666666666663) rotate(0 28.5 13)"><text x="0" y="18" font-family="Virgil, Segoe UI Emoji" font-size="20px" fill="#000000" text-anchor="start" style="white-space: pre;" direction="ltr">Data</text></g><g transform="translate(49.08333333333326 335.1666666666667) rotate(0 170.99999999999994 120)"><path d="M1.0143335581559074 -1.0545022561798705 C74.26171419598414 -1.6234109542059774, 149.4672130567509 -1.530241265310895, 340.98930120223497 -1.25327011561767 M0.2228537937472276 0.1642067724253602 C118.36820222606383 2.063823951281643, 236.3449592058345 1.3680131729027512, 341.98193431534133 -0.4877065578529171 M343.20996901621675 -1.3894022013832257 C343.6379052632189 47.68866423136056, 345.56768198775984 95.20852039006412, 342.97444028383376 238.97564493820727 M342.7654147924066 0.39336826006602865 C344.4568660423528 94.26102996229757, 344.3405069021644 187.50915249313857, 342.19402517445394 239.4747160650705 M342.0978817082716 239.58137837784292 C249.51485628033325 240.69501511763633, 157.77340280629045 242.07606404797733, 0.4862420491554632 238.9400555833679 M342.1068192346371 239.86725356796964 C268.94356189588785 239.8035697419067, 196.9615276695829 239.58906965274136, -0.001629295808870345 239.62029321001955 M0.9031360409488604 240.25240064243783 C1.5946153048417582 149.61946617166103, -0.8021321463222489 62.317257062097916, -0.5480846404240206 -0.9217819078978225 M-0.6408587230073772 240.61202971089338 C-2.078666043622368 172.61326813780485, -1.5699437835802965 106.31106275929257, -0.3753765543313585 -0.48296612900722397" stroke="#000000" stroke-width="1" fill="none"></path></g><g transform="translate(50.08333333333326 378.1666666666667) rotate(0 170.99999999999994 73)"><path d="M-1.0545022561798705 -1.1265920585368736 C120.49529355035187 -3.0439098367377193, 241.119675223032 -2.7452091822116285, 340.7467298843823 0.6066362194456949 M0.1642067724253602 0.12873174456378741 C105.00392312651014 -0.8961417317810999, 208.98772483605833 -0.7802256592741715, 341.5122934421471 -0.6513613181644505 M340.3326546661556 -0.4266100041568279 C340.40825815048066 60.24157800935209, 339.3141701921448 117.87411004751921, 340.77072770521045 147.79705821350217 M342.4720596615225 0.7919213529676199 C342.9405496745929 57.570560065656906, 342.5606441527232 114.06938882656397, 341.3696355763823 145.67890754900873 M341.58137837784295 145.13349445643172 C220.5940119661317 145.1780568796318, 100.69166244742429 146.65361977029988, -1.0599444166320933 144.8370871522152 M341.86725356796967 145.56292346301257 C227.35370360216646 146.56557258629127, 112.73699683543018 146.36369248665005, -0.37970678998044055 146.48518645415243 M0.30289215967059135 146.90743945911527 C-2.405151746235788 106.3521070946008, 0.2991077685728669 69.98401914536953, -1.1061798818409443 -0.40907634422183037 M0.7344632688909769 145.27645263634622 C-1.643848070912063 91.31368940621614, -0.6971582863852381 36.403025403991336, -0.5795811470597982 -0.961549723520875" stroke="#000000" stroke-width="2" fill="none"></path></g><g transform="translate(61.08333333333326 346.6666666666667) rotate(0 34 13)"><text x="0" y="18" font-family="Virgil, Segoe UI Emoji" font-size="20px" fill="#000000" text-anchor="start" style="white-space: pre;" direction="ltr">HEader</text></g><g transform="translate(58.08333333333326 540.1666666666667) rotate(0 70 13)"><text x="0" y="18" font-family="Virgil, Segoe UI Emoji" font-size="20px" fill="#000000" text-anchor="start" style="white-space: pre;" direction="ltr">Parent Header</text></g><g><g transform="translate(49.08333333333326 408.1666666666667) rotate(0 170.27155034938363 -0.1598958259030816)"><path d="M-0.03249123618006711 -1.184461648017168 C57.13512114956976 -1.166989118605852, 285.23532134965063 -1.2031310148537158, 342.0517885632813 -0.9142618484795093 M-1.5086878645140678 0.8080920414347204 C55.588899734942245 1.0391053969878705, 283.68524618926455 0.5288019905705006, 341.13093209537675 0.14317593229003256" stroke="#000000" stroke-width="1" fill="none"></path></g></g><g transform="translate(62.08333333333326 381.1666666666667) rotate(0 21 13)"><text x="0" y="18" font-family="Virgil, Segoe UI Emoji" font-size="20px" fill="#000000" text-anchor="start" style="white-space: pre;" direction="ltr">Salt</text></g><g transform="translate(57.08333333333326 421.1666666666667) rotate(0 28.5 13)"><text x="0" y="18" font-family="Virgil, Segoe UI Emoji" font-size="20px" fill="#000000" text-anchor="start" style="white-space: pre;" direction="ltr">Data</text></g><g><g transform="translate(206.81652324809681 326.1666666666667) rotate(0 -0.03612828828471493 -26.020754608283752)"><path d="M-0.9142618484795093 -1.1336879543960094 C-0.6370510201137904 -9.963491238405307, 0.49145073966103614 -44.34984245027105, 0.4788033221771457 -52.92703114077449 M0.8066119517292827 0.8855219242069872 C1.0774578036292997 -7.738060335706297, -0.28355335369725715 -42.08243294844093, -0.18114663258032127 -51.35129723845981" stroke="#000000" stroke-width="2" fill="none"></path></g><g transform="translate(206.81652324809681 326.1666666666667) rotate(0 -0.03612828828471493 -26.020754608283752)"><path d="M7.389288704251639 -25.682693970007097 C7.485467926712373 -33.18587301199348, 6.131587322389521 -36.13993905338147, 0.20701557427807527 -50.3734099768009 M8.54348280408024 -27.57930114361385 C7.767262730363727 -34.005652393092625, 4.849645989242512 -41.285897196483276, -0.39445163465873523 -51.79705256558023" stroke="#000000" stroke-width="2" fill="none"></path></g><g transform="translate(206.81652324809681 326.1666666666667) rotate(0 -0.03612828828471493 -26.020754608283752)"><path d="M-10.735484753728526 -25.393316864287964 C-6.991006634076424 -32.81665612365383, -4.696463454336644 -35.82897228979602, 0.20701557427807527 -50.3734099768009 M-9.581290653899925 -27.289924037894718 C-5.284571516058847 -33.79230654844474, -3.1308698132286663 -41.15351917506877, -0.39445163465873523 -51.79705256558023" stroke="#000000" stroke-width="2" fill="none"></path></g></g><g><g transform="translate(213.33333333333337 616.6666666666667) rotate(0 0.6992326533831488 -17.41677856894364)"><path d="M1.1518404655158518 -0.3088890843093395 C1.1337790898978708 -5.705107095423668, 1.03240358158946 -27.0244908729361, 0.8150113038718698 -32.72268413429457 M0.2974179805722086 -1.5166597989108415 C0.11185309394262713 -7.2348578509926345, 0.51079659297131 -29.145438459671812, 0.2948467747773975 -34.52466805357795" stroke="#000000" stroke-width="2" fill="none"></path></g><g transform="translate(213.33333333333337 616.6666666666667) rotate(0 0.6992326533831488 -17.41677856894364)"><path d="M5.678939285148623 -17.77266992745021 C4.809792275611949 -24.94860258871563, 0.15276814763346502 -30.03190536769184, -0.3557164062901086 -34.52664802984954 M5.824088104771517 -19.627331244061082 C3.3317808751249127 -25.32144449422881, 1.784355518293641 -29.876041243555143, 0.881471909039343 -34.209478761854875" stroke="#000000" stroke-width="2" fill="none"></path></g><g transform="translate(213.33333333333337 616.6666666666667) rotate(0 0.6992326533831488 -17.41677856894364)"><path d="M-5.7214358397295175 -17.690472662257854 C-2.2929942921464774 -25.00681788753574, -2.6526664377404168 -30.121104785600288, -0.3557164062901086 -34.52664802984954 M-5.576287020106623 -19.545133978868726 C-3.9028087322556533 -25.210215437202194, -1.2836942611624385 -29.794853143551343, 0.881471909039343 -34.209478761854875" stroke="#000000" stroke-width="2" fill="none"></path></g></g><g transform="translate(10 10) rotate(0 228.33333333333331 449.83333333333337)"><path d="M-0.5541648816572651 0.7172695221550688 C114.44107101630931 -1.7098342727301885, 227.42995883258797 -1.8083855429335403, 456.7943673752863 -0.30616621887490897 M456.39441408763327 0.4957574799656868 C459.2304444836601 243.88885295136524, 459.9470512436851 486.53780322012807, 456.9761191333333 899.6466851348679 M456.21973541075346 899.8741164824846 C304.3681301205777 899.8313457727859, 152.34723966692684 899.9912692638206, -0.45181548194327203 900.1886417829814 M0.6099884316325188 899.6182499999802 C-3.0328492399280274 647.4562125320857, -4.245171618086597 395.8469536896795, -0.36853143721818926 -0.58100595921278" stroke="#7f7f7f " stroke-width="2.5" fill="none" stroke-dasharray="12 8"></path></g><g transform="translate(642.8181818181819 141.07575757575614) rotate(0 211 260)"><text x="0" y="18" font-family="Virgil, Segoe UI Emoji" font-size="20px" fill="#7f7f7f " text-anchor="start" style="white-space: pre;" direction="ltr">[</text><text x="0" y="44" font-family="Virgil, Segoe UI Emoji" font-size="20px" fill="#7f7f7f " text-anchor="start" style="white-space: pre;" direction="ltr">  {</text><text x="0" y="70" font-family="Virgil, Segoe UI Emoji" font-size="20px" fill="#7f7f7f " text-anchor="start" style="white-space: pre;" direction="ltr">    header: 049jsoifn0934u0tijn0wi,</text><text x="0" y="96" font-family="Virgil, Segoe UI Emoji" font-size="20px" fill="#7f7f7f " text-anchor="start" style="white-space: pre;" direction="ltr">    salt: x;lkmgv-9034j2-t9gjspi-034jfvcjw,</text><text x="0" y="122" font-family="Virgil, Segoe UI Emoji" font-size="20px" fill="#7f7f7f " text-anchor="start" style="white-space: pre;" direction="ltr">    data: c=====8,</text><text x="0" y="148" font-family="Virgil, Segoe UI Emoji" font-size="20px" fill="#7f7f7f " text-anchor="start" style="white-space: pre;" direction="ltr">    parent_header: fmolms-90342-05i2</text><text x="0" y="174" font-family="Virgil, Segoe UI Emoji" font-size="20px" fill="#7f7f7f " text-anchor="start" style="white-space: pre;" direction="ltr">  },</text><text x="0" y="200" font-family="Virgil, Segoe UI Emoji" font-size="20px" fill="#7f7f7f " text-anchor="start" style="white-space: pre;" direction="ltr">  {</text><text x="0" y="226" font-family="Virgil, Segoe UI Emoji" font-size="20px" fill="#7f7f7f " text-anchor="start" style="white-space: pre;" direction="ltr">     ...</text><text x="0" y="252" font-family="Virgil, Segoe UI Emoji" font-size="20px" fill="#7f7f7f " text-anchor="start" style="white-space: pre;" direction="ltr">  },</text><text x="0" y="278" font-family="Virgil, Segoe UI Emoji" font-size="20px" fill="#7f7f7f " text-anchor="start" style="white-space: pre;" direction="ltr">  ...</text><text x="0" y="304" font-family="Virgil, Segoe UI Emoji" font-size="20px" fill="#7f7f7f " text-anchor="start" style="white-space: pre;" direction="ltr">]</text><text x="0" y="330" font-family="Virgil, Segoe UI Emoji" font-size="20px" fill="#7f7f7f " text-anchor="start" style="white-space: pre;" direction="ltr"></text><text x="0" y="356" font-family="Virgil, Segoe UI Emoji" font-size="20px" fill="#7f7f7f " text-anchor="start" style="white-space: pre;" direction="ltr"></text><text x="0" y="382" font-family="Virgil, Segoe UI Emoji" font-size="20px" fill="#7f7f7f " text-anchor="start" style="white-space: pre;" direction="ltr"></text><text x="0" y="408" font-family="Virgil, Segoe UI Emoji" font-size="20px" fill="#7f7f7f " text-anchor="start" style="white-space: pre;" direction="ltr">[</text><text x="0" y="434" font-family="Virgil, Segoe UI Emoji" font-size="20px" fill="#7f7f7f " text-anchor="start" style="white-space: pre;" direction="ltr">  "foo",</text><text x="0" y="460" font-family="Virgil, Segoe UI Emoji" font-size="20px" fill="#7f7f7f " text-anchor="start" style="white-space: pre;" direction="ltr">  "bar",</text><text x="0" y="486" font-family="Virgil, Segoe UI Emoji" font-size="20px" fill="#7f7f7f " text-anchor="start" style="white-space: pre;" direction="ltr">  "baz"</text><text x="0" y="512" font-family="Virgil, Segoe UI Emoji" font-size="20px" fill="#7f7f7f " text-anchor="start" style="white-space: pre;" direction="ltr">]</text></g></svg>