<svg version="1.1" xmlns="http://www.w3.org/2000/svg" viewBox="0 0 1600.0767575673758 753" width="1600.0767575673758" height="753">
  <!-- svg-source:excalidraw -->
  
  <defs>
    <style>
      @font-face {
        font-family: "Virgil";
        src: url("https://excalidraw.com/FG_Virgil.woff2");
      }
      @font-face {
        font-family: "Cascadia";
        src: url("https://excalidraw.com/Cascadia.woff2");
      }
    </style>
  </defs>
  <rect x="0" y="0" width="1600.0767575673758" height="753" fill="#ffffff"></rect><g transform="translate(270.0767575673759 107) rotate(0 94.5 34)"><path d="M-3.4086787402629852 3.668528765439987 C78.475152053684 -4.007428472489119, 153.4852340683341 1.9531971760094167, 189.99968174099922 -0.36268022656440735 M0.898960217833519 1.708675041794777 C42.274594558030365 3.31257888302207, 84.59760133475065 1.205030646175146, 190.49335633218288 1.8035108000040054 M185.24656131863594 1.761411875486374 C189.98942275702953 21.04021834433079, 191.0725745743513 50.57900406122208, 187.73722770810127 64.71869775652885 M190.09678421914577 -1.1289576143026352 C189.6848126065731 20.417868345975876, 189.13167816519737 40.90623788535595, 187.23083792626858 68.77753891050816 M188.324683457613 69.79518243670464 C126.06332280412315 70.50519606158137, 68.14110399633644 67.86016985461116, -2.5427739322185516 69.75951787829399 M187.11905585229397 68.94504608213902 C141.54597864672542 72.18528733864427, 98.1732035651803 71.27460799828172, 1.3176694959402084 69.22423852980137 M-1.7475545108318329 71.79620763659477 C-0.958936418890953 52.13159928023815, -1.9800936836004257 30.1078295469284, -2.382315367460251 3.254897326231003 M1.869583711028099 66.67531503736973 C-1.0204283952713011 52.37070518732071, -3.0795137643814083 38.70783422887325, 1.3920346349477768 -1.096136435866356" stroke="#000000" stroke-width="1" fill="none"></path></g><g transform="translate(324.0767575673759 124) rotate(0 47 12.5)"><text x="0" y="20" font-family="Cascadia, Segoe UI Emoji" font-size="20px" fill="#000000" text-anchor="start" style="white-space: pre;" direction="ltr">Client 1</text></g><g><g transform="translate(480.32394857861186 109.40811117733318) rotate(0 106.76455417771103 -2.0009714901835878)"><path d="M0.3400299578905104 -0.013902667164802374 C36.69330381297886 -0.48241282469624575, 180.23594187020365 0.3961709615292991, 216.44901491962793 -0.10542940596308181 M-2.9199065642058852 -2.489760782271624 C33.29330794531922 -2.536273956910713, 178.0591730186751 -4.359727840502774, 214.70194059826855 -4.0099957453664725" stroke="#000000" stroke-width="1" fill="none"></path></g><g transform="translate(480.32394857861186 109.40811117733318) rotate(0 106.76455417771103 -2.0009714901835878)"><path d="M186.52154533185757 7.625259387237836 C196.02026015424175 6.741651886303479, 198.61953467308905 1.940325778392653, 211.5422528705788 -5.2962990569528525 M187.3211147747258 7.641836079699804 C191.66434663808732 2.5568890420457073, 197.2225795417499 -0.34756088011863717, 214.18973843969826 -4.5203920918163245" stroke="#000000" stroke-width="1" fill="none"></path></g><g transform="translate(480.32394857861186 109.40811117733318) rotate(0 106.76455417771103 -2.0009714901835878)"><path d="M186.46129968182797 -12.89586077827682 C196.37108355298847 -8.847677205735053, 198.9848371924688 -8.717065916413734, 211.5422528705788 -5.2962990569528525 M187.2608691246962 -12.879284085814852 C192.00212795498962 -13.423590080305381, 197.5736944958226 -11.78628187583279, 214.18973843969826 -4.5203920918163245" stroke="#000000" stroke-width="1" fill="none"></path></g></g><g transform="translate(482.0767575673759 69) rotate(0 93.5 12.5)"><text x="93.5" y="20" font-family="Cascadia, Segoe UI Emoji" font-size="20px" fill="#000000" text-anchor="middle" style="white-space: pre;" direction="ltr">Transaction Data</text></g><g transform="translate(860.0767575673759 297) rotate(0 58.5 25)"><text x="0" y="20" font-family="Cascadia, Segoe UI Emoji" font-size="20px" fill="#000000" text-anchor="start" style="white-space: pre;" direction="ltr">Mining </text><text x="0" y="45" font-family="Cascadia, Segoe UI Emoji" font-size="20px" fill="#000000" text-anchor="start" style="white-space: pre;" direction="ltr">Incomplete</text></g><g transform="translate(823.5767575673759 65) rotate(0 94.5 252)"><path d="M2.315475672483444 2.3261864483356476 C72.82551352754236 -1.4520498891174793, 148.20685875564814 -3.835847534686327, 185.95177766680717 3.2597544491291046 M-1.4729603379964828 -1.26847542822361 C56.2657449476421 -1.076587602943182, 109.06220474988224 -0.41162817224860193, 190.63260234892368 -0.6520151048898697 M189.52829712629318 0.6305832982063294 C190.94517976760866 115.40909314751626, 189.35921518325807 231.50021286010744, 190.50516899824143 504.01271411180494 M189.5943602144718 0.7619127690792085 C189.86373437857628 130.46559925079347, 188.75816625571252 259.8578050196171, 188.7946480333805 503.45521931052207 M186.63896772265434 502.6109402477741 C117.38883506283163 508.80781505301593, 56.015869151055796 503.33338020041583, 3.186829775571823 503.46009662747383 M188.47505010664463 504.1436978429556 C121.75623717978597 501.8326257048547, 54.98287408202887 503.0629232703149, 1.0413366705179214 502.3624225705862 M0.5311070322990418 502.6675561070442 C0.6124105482101441 340.90120255351064, 2.9154352216720585 175.20761511325836, -0.500053322315216 -0.4739214777946472 M-0.4106030881404877 504.57833237051966 C2.080364437818527 348.04142903089524, 1.7379188735485078 193.55671685338018, -0.28344759345054626 -0.6987834513187409" stroke="#000000" stroke-width="1" fill="none"></path></g><g transform="translate(845.5767575673759 85) rotate(0 76 12.5)"><text x="0" y="20" font-family="Cascadia, Segoe UI Emoji" font-size="20px" fill="#000000" text-anchor="start" style="white-space: pre;" direction="ltr">Mining Server</text></g><g><g transform="translate(824.0767575673759 136) rotate(0 91.94044975936413 -1.4920301902705262)"><path d="M-2.7257978469133377 0.6121316462755204 C28.287687394022942 0.5248635480801265, 155.5583986888329 1.029775320490201, 186.6066973656416 0.4885368853807446 M0.9899591083824637 -1.523879270106554 C31.818683427522583 -2.525603390882413, 155.69545332466564 -3.8992317322393264, 185.78375268653036 -3.714068493396044" stroke="#000000" stroke-width="1" fill="none"></path></g></g><g transform="translate(266.5767575673759 324) rotate(0 94.5 34)"><path d="M-0.637827605009079 3.423678606748581 C46.36685718521476 4.556820833235979, 92.84935569614173 -2.358285940140486, 190.77663639187813 0.015272349119186401 M-0.47920216619968414 0.43223537504673004 C62.85843035057187 -2.1460541202127934, 123.40515405386687 -3.1145642711222172, 188.60237656533718 -1.6808146089315414 M191.84187534451485 -3.8352449238300323 C185.51833007514477 28.488034048676493, 186.38737056434155 51.09472976922989, 190.44020774960518 68.26828119158745 M187.18724976480007 0.7333966642618179 C192.06089628577232 16.80346252322197, 192.25739563345908 35.365853211283685, 190.19520483911037 69.73278869688511 M186.7835228741169 68.43265649676323 C134.32363488450645 64.54863657519222, 85.05445124059914 65.293502946347, 2.3752939999103546 69.81666967272758 M188.59611807763577 68.21572555601597 C150.30644064471124 69.01818212166428, 110.22878408581018 69.48872836723923, -1.0696481615304947 67.01359476149082 M2.8638727962970734 70.00375005602837 C2.2011339241266246 43.36356568038464, -4.049759668707848 17.88765742778778, -0.7100970447063446 2.9055549800395966 M-1.473788633942604 66.74885095655918 C0.6845459699630736 51.685747301578516, -0.4920931100845338 33.06516378819942, 0.32100115716457367 -0.9531425088644028" stroke="#000000" stroke-width="1" fill="none"></path></g><g transform="translate(320.5767575673759 341) rotate(0 35 12.5)"><text x="0" y="20" font-family="Cascadia, Segoe UI Emoji" font-size="20px" fill="#000000" text-anchor="start" style="white-space: pre;" direction="ltr">Client</text></g><g transform="translate(502.0767575673759 287.5) rotate(0 76 12.5)"><text x="76" y="20" font-family="Cascadia, Segoe UI Emoji" font-size="20px" fill="#000000" text-anchor="middle" style="white-space: pre;" direction="ltr">Dynasty Query</text></g><g><g transform="translate(832.0767575673759 430.5) rotate(0 90.5146080046892 -0.898841665523662)"><path d="M-1.9709228008985518 -0.014522174000739962 C28.746424375971156 -0.048947496215502394, 151.97820077240465 1.0294847458601, 183.00013881027698 1.1005108803510666 M2.1546234650909906 -2.4907165928184987 C32.526449056814116 -3.4109118592242402, 150.17171939646204 -2.4596800473829115, 180.21934805825353 -2.769880044013262" stroke="#000000" stroke-width="1" fill="none"></path></g></g><g transform="translate(517.5767575673759 338.5) rotate(0 64.5 25)"><text x="64.5" y="20" font-family="Cascadia, Segoe UI Emoji" font-size="20px" fill="#000000" text-anchor="middle" style="white-space: pre;" direction="ltr">Transaction</text><text x="64.5" y="45" font-family="Cascadia, Segoe UI Emoji" font-size="20px" fill="#000000" text-anchor="middle" style="white-space: pre;" direction="ltr">Unverified</text></g><g><g transform="translate(775.3730782194435 390.6211273318495) rotate(0 -155.62084956919506 0.12155124308833365)"><path d="M-2.299185946583748 2.3951724559068674 C-54.13038769937341 2.9743200161875616, -259.3087185689203 1.9740753307051135, -310.5267865733376 2.199057241571745 M1.648160326033831 1.2270979790389536 C-50.61857668123429 1.0439766098381411, -260.7749631248804 -2.050218752562337, -312.8898594644239 -2.332468387144009" stroke="#000000" stroke-width="1" fill="none"></path></g><g transform="translate(775.3730782194435 390.6211273318495) rotate(0 -155.62084956919506 0.12155124308833365)"><path d="M-281.170275371418 -12.622926135013142 C-292.37652236010695 -8.622319439265654, -299.1226368119841 -3.0580755938924, -309.84927755262163 1.5969962212868536 M-284.16371035192964 -12.722870413610973 C-291.6106855078827 -9.008579893354263, -300.59003055908386 -7.254161393975987, -310.94452727999 -3.20259357656757" stroke="#000000" stroke-width="1" fill="none"></path></g><g transform="translate(775.3730782194435 390.6211273318495) rotate(0 -155.62084956919506 0.12155124308833365)"><path d="M-281.38770115768943 7.897130600125372 C-292.3381446562216 5.407865097533162, -299.015456085149 4.478666013765146, -309.84927755262163 1.5969962212868536 M-284.3811361382011 7.7971863215275405 C-291.85841169502936 5.774792892467516, -300.7769530077944 1.790719266263043, -310.94452727999 -3.20259357656757" stroke="#000000" stroke-width="1" fill="none"></path></g></g><g transform="translate(864.5767575673759 481) rotate(0 47 25)"><text x="0" y="20" font-family="Cascadia, Segoe UI Emoji" font-size="20px" fill="#000000" text-anchor="start" style="white-space: pre;" direction="ltr">Mining </text><text x="0" y="45" font-family="Cascadia, Segoe UI Emoji" font-size="20px" fill="#000000" text-anchor="start" style="white-space: pre;" direction="ltr">Complete</text></g><g transform="translate(249.8141235051304 448.75) rotate(0 94.5 34)"><path d="M3.2820551693439484 -3.914920598268509 C70.7852367065847 5.834687592536211, 140.10119290202857 5.816278817206621, 192.65632751584053 -1.4144828617572784 M-1.0644716173410416 0.8905593305826187 C63.96645759418607 3.1069520185887813, 125.70306002348661 2.54287607178092, 190.63900958001614 0.6314369589090347 M191.72766998410225 3.357802599668503 C184.54483163535596 19.167636385560037, 188.55379522025586 44.566550981998446, 188.02702167630196 69.36333677172661 M188.71106539666653 0.8377624899148941 C188.74439775824547 22.986387366056444, 190.45955860495567 46.68544254004956, 188.88437996804714 66.90543760359287 M188.47800281643867 70.67395231127739 C131.0745970226824 63.55635735556483, 72.38435651212929 62.32878109976649, 3.605754166841507 65.35938760638237 M189.15919457376003 68.48126997053623 C136.4117749504745 69.60729966297745, 85.2792082324624 68.30747542515397, 0.4053698629140854 67.60865272581577 M2.5535614788532257 66.96614572405815 C-1.628010534644127 39.357723185420035, -1.1510904067754746 20.031740832328794, 1.4442827999591827 -3.0249631702899933 M0.136849507689476 69.86258567869663 C0.36553977489471423 49.884069979190826, -1.2270081186294557 34.99992989003658, 0.29328785836696625 1.298211231827736" stroke="#000000" stroke-width="1" fill="none"></path></g><g transform="translate(303.8141235051304 465.75) rotate(0 35 12.5)"><text x="0" y="20" font-family="Cascadia, Segoe UI Emoji" font-size="20px" fill="#000000" text-anchor="start" style="white-space: pre;" direction="ltr">Client</text></g><g><g transform="translate(453.44614782623955 471.92553084491317) rotate(0 165.11120084464545 -2.530027077195598)"><path d="M-2.740444418787956 -0.7925393134355545 C53.0266401904821 -1.8865178211283744, 277.0144453773894 -4.549617616212398, 332.96284610807874 -4.266432427616155 M0.9673615403473379 -3.6910858936607838 C56.73910176987446 -4.746952306156562, 276.84352406894146 -2.1320977056285044, 332.10087205603696 -2.055898535848892" stroke="#000000" stroke-width="1" fill="none"></path></g><g transform="translate(453.44614782623955 471.92553084491317) rotate(0 165.11120084464545 -2.530027077195598)"><path d="M302.708071952422 11.631944847834514 C306.76465326661696 9.73621570724333, 320.97791748200706 2.28848670567477, 333.59865217044927 1.2880042606579898 M304.0297175252036 8.785388586652683 C308.83088971783263 5.570768514020347, 319.05528500710085 3.59282647157562, 332.19431555405237 -3.4448058342945935" stroke="#000000" stroke-width="1" fill="none"></path></g><g transform="translate(453.44614782623955 471.92553084491317) rotate(0 165.11120084464545 -2.530027077195598)"><path d="M302.84904730619974 -8.888779514026268 C307.2083421854261 -5.832730977778253, 321.38756921849506 -8.325922765925851, 333.59865217044927 1.2880042606579898 M304.1706928789813 -11.7353357752081 C308.71983374533517 -10.05866810099925, 318.910634994833 -7.146577865769683, 332.19431555405237 -3.4448058342945935" stroke="#000000" stroke-width="1" fill="none"></path></g></g><g transform="translate(484.3141235051304 421.25) rotate(0 76 12.5)"><text x="76" y="20" font-family="Cascadia, Segoe UI Emoji" font-size="20px" fill="#000000" text-anchor="middle" style="white-space: pre;" direction="ltr">Dynasty Query</text></g><g transform="translate(519.8141235051304 476.25) rotate(0 64.5 25)"><text x="64.5" y="20" font-family="Cascadia, Segoe UI Emoji" font-size="20px" fill="#000000" text-anchor="middle" style="white-space: pre;" direction="ltr">Transaction</text><text x="64.5" y="45" font-family="Cascadia, Segoe UI Emoji" font-size="20px" fill="#000000" text-anchor="middle" style="white-space: pre;" direction="ltr">Verified</text></g><g><g transform="translate(773.6403294111043 532.2148826508146) rotate(0 -163.79660494217626 -3.9664218061551537)"><path d="M-2.613574984669685 2.521915009617805 C-57.132769820770775 0.35698838057169224, -273.4401889089801 -8.847124676801316, -327.9077083300421 -10.454758621928159 M1.1631029529869554 1.422643633335829 C-53.42585239800927 0.8612358352248767, -273.4529481540678 -5.228644305316163, -328.7563128373394 -7.362930368807974" stroke="#000000" stroke-width="1" fill="none"></path></g><g transform="translate(773.6403294111043 532.2148826508146) rotate(0 -163.79660494217626 -3.9664218061551537)"><path d="M-296.6488189151792 -13.059610940952226 C-309.2412955123204 -13.209130601722816, -312.22751083055283 -14.633854770645645, -330.8852560720215 -5.5818117076427365 M-300.0410423478393 -15.07692887677662 C-308.3691042516338 -14.255610033799815, -319.21088237726576 -11.398759620484245, -327.3924778452883 -5.6840290689737225" stroke="#000000" stroke-width="1" fill="none"></path></g><g transform="translate(773.6403294111043 532.2148826508146) rotate(0 -163.79660494217626 -3.9664218061551537)"><path d="M-297.3056677799923 7.451082659085613 C-310.0910427356509 1.7411719103114525, -312.8987954854519 -5.2562056591991215, -330.8852560720215 -5.5818117076427365 M-300.6978912126524 5.433764723261219 C-308.9815499903337 -0.08025050122038513, -319.62005156883833 -3.5708921786274095, -327.3924778452883 -5.6840290689737225" stroke="#000000" stroke-width="1" fill="none"></path></g></g><g><g transform="translate(689.0713417048723 163.5037951330366) rotate(0 -106.27113076494743 1.2778098025089548)"><path d="M-2.4903819113969803 1.9747549563646318 C-37.96266607662576 2.0816149586190784, -176.57932663661921 -0.3304107776532568, -211.76409554305894 -0.24116043522953978 M1.353172266036272 0.578453836888075 C-34.57114149774648 1.1378953735282025, -179.06057788737303 3.190464085663359, -213.89543379593118 2.730035169422627" stroke="#000000" stroke-width="1" fill="none"></path></g><g transform="translate(689.0713417048723 163.5037951330366) rotate(0 -106.27113076494743 1.2778098025089548)"><path d="M-182.91274960811012 -7.329656952666958 C-197.05519807724426 -6.954765189513093, -202.64886626901267 2.358852327402471, -211.94565216946825 0.6389261618256574 M-186.8611325370776 -7.722021141695698 C-193.09761100529082 -5.272914277811319, -196.12869632698525 -2.9030467077522237, -215.2637178872846 2.288661448657513" stroke="#000000" stroke-width="1" fill="none"></path></g><g transform="translate(689.0713417048723 163.5037951330366) rotate(0 -106.27113076494743 1.2778098025089548)"><path d="M-182.85462984402628 13.191469343880762 C-196.88740437010728 6.625075408832444, -202.50072868570078 8.998441087611319, -211.94565216946825 0.6389261618256574 M-186.80301277299375 12.799105154852022 C-192.7863315190221 11.105410181879925, -195.82915281107717 9.331500952786799, -215.2637178872846 2.288661448657513" stroke="#000000" stroke-width="1" fill="none"></path></g></g><g transform="translate(507.5767575673759 135.5) rotate(0 70.5 12.5)"><text x="70.5" y="20" font-family="Cascadia, Segoe UI Emoji" font-size="20px" fill="#000000" text-anchor="middle" style="white-space: pre;" direction="ltr">Data Receipt</text></g><g transform="translate(14.076757567375921 63) rotate(0 30.5 24)"><path d="M17.740886663288247 3.5515529402478236 C23.23469782326221 0.8956497984820508, 31.479276591806244 -2.161320182297058, 37.304857149605695 -1.3655151916687984 C43.13043770740514 -0.5697102010405389, 48.601943178716496 3.9383545851583204, 52.694370010084945 8.32638288401738 C56.786796841453395 12.714411182876441, 62.04162088391287 19.983423370838768, 61.8594181378164 24.962654601485564 C61.677215391719926 29.94188583213236, 56.15482936631565 34.54061226005929, 51.60115353350609 38.20177026789816 C47.04747770069653 41.86292827573703, 40.64686115744328 46.11180766109254, 34.53736314095906 46.92960264851879 C28.42786512447483 47.747397635945035, 20.658748232139793 45.929426200632534, 14.944165434600732 43.10854019245565 C9.229582637061672 40.287654184278765, 2.0646449401201057 34.85865029499695, 0.24986635572469496 30.004286599457473 C-1.5649122286707156 25.149922903917993, -1.2428004384632176 19.093019830286586, 4.05549392822827 13.98235801921878 C9.353788294919756 8.871696208150976, 24.732050189469202 0.8931038822312927, 32.03963255587362 -0.6596842669493554 C39.347214922278035 -2.2124724161300033, 47.94139455413805 3.919910355708701, 47.90098812665477 4.665629124134892 M40.23754738586728 -0.6220340174198427 C45.64369793251885 0.3649513590251937, 50.54096151768372 5.294445309874161, 53.68875133098248 9.908645817828468 C56.836541144281234 14.522846325782776, 59.286501330508386 21.53110535763422, 59.12428626565982 27.063169030306 C58.96207120081125 32.595232702977775, 56.576265734369706 40.010745927899315, 52.71546094189105 43.10102785385914 C48.8546561494124 46.19130977981896, 42.316220269456416 45.452489326748626, 35.95945751078791 45.60486058606492 C29.602694752119397 45.75723184538122, 20.376808942309818 46.87288607619078, 14.57488438987999 44.015255409756925 C8.772959837450163 41.15762474332307, 2.6688537133031502 33.10615304554997, 1.147910196208933 28.45907658746178 C-0.37303332088528407 23.81200012937359, 3.2245273519089235 20.934916400223848, 5.4492232873146875 16.13279666122778 C7.673919222720452 11.330676922231712, 9.468089351231452 1.887261067483918, 14.496085808643517 -0.3536418465146234 C19.524082266055583 -2.594544760513165, 32.21322456165511 2.2983765029657977, 35.61720203178707 2.6873791772365294 C39.021179501919036 3.076381851507261, 34.84953985049353 2.252132280183728, 34.919950629435306 1.980374199109768" stroke="#000000" stroke-width="1" fill="none"></path></g><g><g transform="translate(40.07675756737592 106) rotate(0 -0.7976470256298853 47.398070127293494)"><path d="M0.6818549126386642 2.6184879809618 C0.9992413173119226 17.84429463048776, 0.5872164060672125 78.72313727041085, 0.4333290070295335 93.22449832260608 M-2.3925194911658765 1.5716419319808486 C-2.366347662260135 15.871995041022696, -2.057227911601464 74.35147908573349, -2.112301352471113 89.42141486689448" stroke="#000000" stroke-width="1" fill="none"></path></g></g><g><g transform="translate(36.07675756737592 115) rotate(0 -12.11472070030868 11.237075399681913)"><path d="M1.847316166758537 -2.6013143986463545 C-1.759706404805184 1.4121336489915848, -19.46471125582854 17.922969900568326, -24.24733705818653 21.99286427795887 M-0.5943792705237865 2.158232546299696 C-4.270628909717004 6.751899050523837, -22.672582970907293 21.387411334166924, -26.0767575673759 25.075465198010207" stroke="#000000" stroke-width="1" fill="none"></path></g></g><g><g transform="translate(40.07675756737592 111) rotate(0 14.607224391773343 15.048783883973954)"><path d="M0.9099415332078933 -2.6122505217790604 C6.44904570877552 2.785408303141594, 26.232592124740282 24.08778667151928, 31.25506320297718 29.755870911478997 M-2.0406144194304945 2.141359670609236 C3.237160065521797 8.146856135974328, 23.486113673398894 27.279795304586493, 28.612659978419543 32.709818289726975" stroke="#000000" stroke-width="1" fill="none"></path></g></g><g><g transform="translate(43.07675756737592 192) rotate(0 -15.45836187653245 21.96120888039468)"><path d="M1.3324065178632738 0.5950237780809404 C-3.303877324859301 7.770985050002734, -24.73376519183318 35.25375835398833, -30.007208254933357 42.25032611191273 M-1.3888113002479079 -1.5502742667496205 C-6.200683091133833 6.113174545417229, -27.100075710266825 37.63872304325302, -32.24913027092814 45.47269202753901" stroke="#000000" stroke-width="1" fill="none"></path></g></g><g><g transform="translate(38.07675756737592 202) rotate(0 9.978482672572142 16.792017176598307)"><path d="M-1.150234416127205 1.0344991236925125 C2.5899882922569915 6.258188870549202, 17.446095908681553 25.962274633844693, 21.107199761271477 31.239676335453986 M3.4208284015953545 -0.8722265906631947 C7.008900051464638 4.774384249498446, 16.79837665433685 28.279481494079036, 19.470242096930743 34.45626094385982" stroke="#000000" stroke-width="1" fill="none"></path></g></g><g><g transform="translate(84.61818561181428 143.07313308417798) rotate(0 64.60355317741633 0.09071902965902723)"><path d="M-1.4585719555616379 2.0731330841779707 C20.6984485094746 2.0080008481939613, 108.91956177602212 2.6998236969113254, 130.6656783103943 2.157721042633045 M2.9451076264679434 0.7302372340857985 C24.953796447763846 1.0283300083378935, 107.95951286976538 -2.1942635562519333, 128.54009851112963 -2.1847692622244477" stroke="#000000" stroke-width="1" fill="none"></path></g><g transform="translate(84.61818561181428 143.07313308417798) rotate(0 64.60355317741633 0.09071902965902723)"><path d="M29.724327309721364 -7.807410807542528 C22.534370485583615 -8.22951022701967, 11.594987135300741 -6.816360624202156, -4.55804468691349 3.42491799890995 M26.245372353785886 -8.442088769011225 C22.142908594258238 -4.841950563105333, 15.824961975151764 -2.9258839780663877, -1.6831631064414978 0.833688962459564" stroke="#000000" stroke-width="1" fill="none"></path></g><g transform="translate(84.61818561181428 143.07313308417798) rotate(0 64.60355317741633 0.09071902965902723)"><path d="M29.663072228896507 12.713706369670621 C22.11295205197417 7.804309400832228, 11.186965090560008 4.729523276124016, -4.55804468691349 3.42491799890995 M26.18411727296103 12.079028408201925 C22.47150058485302 11.57058356016924, 16.165819712269 9.377491880067621, -1.6831631064414978 0.833688962459564" stroke="#000000" stroke-width="1" fill="none"></path></g><g transform="translate(84.61818561181428 143.07313308417798) rotate(0 64.60355317741633 0.09071902965902723)"><path d="M103.53557432652883 8.969036571216124 C108.25081529349652 4.532139710560839, 109.59953219432265 1.3451104429197374, 125.44062577977778 -0.8329843474924683 M100.05661937059335 8.334358609747428 C107.59217663307973 8.250192369794748, 112.52522641305904 5.95433076015532, 128.31550736024977 -3.4242133839428543" stroke="#000000" stroke-width="1" fill="none"></path></g><g transform="translate(84.61818561181428 143.07313308417798) rotate(0 64.60355317741633 0.09071902965902723)"><path d="M103.09905980748432 -11.54752886894717 C108.28324268964802 -11.492937689483988, 109.72742462235745 -10.193026687261437, 125.44062577977778 -0.8329843474924683 M99.62010485154885 -12.182206830415867 C106.86557241443245 -8.154027190655215, 111.8860300693484 -6.341641977146135, 128.31550736024977 -3.4242133839428543" stroke="#000000" stroke-width="1" fill="none"></path></g></g><g transform="translate(137.07675756737592 104) rotate(0 17.5 12.5)"><text x="0" y="20" font-family="Cascadia, Segoe UI Emoji" font-size="20px" fill="#000000" text-anchor="start" style="white-space: pre;" direction="ltr">CLI</text></g><g transform="translate(447.0767575673759 32) rotate(0 164 25)"><text x="0" y="20" font-family="Cascadia, Segoe UI Emoji" font-size="20px" fill="#364fc7" text-anchor="start" style="white-space: pre;" direction="ltr">POST /buffered-transactions/</text><text x="0" y="45" font-family="Cascadia, Segoe UI Emoji" font-size="20px" fill="#364fc7" text-anchor="start" style="white-space: pre;" direction="ltr"></text></g><g transform="translate(442.0767575673759 255) rotate(0 176 25)"><text x="0" y="20" font-family="Cascadia, Segoe UI Emoji" font-size="20px" fill="#364fc7" text-anchor="start" style="white-space: pre;" direction="ltr">GET /dynasty?after_hash={hash}</text><text x="0" y="45" font-family="Cascadia, Segoe UI Emoji" font-size="20px" fill="#364fc7" text-anchor="start" style="white-space: pre;" direction="ltr"></text></g><g><g transform="translate(465.3627350895107 332.2652428896149) rotate(0 162.4044232494383 -1.4939081922602782)"><path d="M0.07701196372509012 -0.9554990261793137 C55.04640122234818 -1.0480200032698197, 273.5967883616684 1.5638862350051186, 328.1345522540806 1.2833128897505501 M-3.3257057552039626 -3.942509450465441 C51.305780695229735 -4.99481787103485, 269.1429484827815 -3.287574183050336, 325.1943615384398 -2.7427218065006036" stroke="#000000" stroke-width="1" fill="none"></path></g><g transform="translate(465.3627350895107 332.2652428896149) rotate(0 162.4044232494383 -1.4939081922602782)"><path d="M295.55558350938895 5.439057456750761 C306.1639233069313 1.8299516686548767, 307.3446125083951 -1.4703577164158723, 327.7316256172953 -6.468371371958901 M298.71685214597323 7.037414016623388 C305.7437839086379 4.699957574911737, 311.2656352402983 3.722772233868885, 323.975176797062 -2.0093728557569284" stroke="#000000" stroke-width="1" fill="none"></path></g><g transform="translate(465.3627350895107 332.2652428896149) rotate(0 162.4044232494383 -1.4939081922602782)"><path d="M295.7234720091126 -15.081464365013417 C306.5609987060802 -13.766859498525003, 307.701405360295 -12.143550582033242, 327.7316256172953 -6.468371371958901 M298.88474064569687 -13.48310780514079 C305.72723938532533 -10.091107956980853, 311.20220858474966 -5.338026965401297, 323.975176797062 -2.0093728557569284" stroke="#000000" stroke-width="1" fill="none"></path></g></g><g transform="translate(1326.0767575673758 232) rotate(0 111.5 113.5)"><path d="M111.22496530413628 -3.699804037809372 C140.0825360716879 31.286724454611544, 176.2780575031042 66.05142820671202, 225.5434267222881 111.75131157040596 M113.33156456053257 -0.04709853231906891 C138.23731996819376 28.14144412174821, 165.27251425266266 56.714318165630104, 223.41709245741364 115.47001181542873 M225.32132741808888 110.79579856991768 C199.01544622600076 143.87932389914988, 169.13148096695542 172.68556132927537, 112.10679933428764 230.31066539883614 M224.411625996232 114.59846411645412 C187.31644945859907 150.33159368872643, 149.3060780529678 187.50538883373142, 111.8039318472147 226.59419690072536 M110.19646760821342 224.68791607022285 C83.55823404088616 195.23487016126515, 47.96031020179391 161.52771803826096, -1.9699952900409698 116.35735443234444 M112.84375347197056 227.82384549081326 C78.93175549432634 192.65594413653017, 46.672634636610724 159.34127386659384, -0.17737756669521332 115.80747805535793 M-2.0607469379901886 111.68455627560616 C37.56920088917017 79.5395830270648, 75.14525888353586 36.90682474195957, 109.87066003680229 -1.3693635165691376 M-1.658674106001854 112.14222918450832 C42.15887645989657 70.07844536155463, 84.1447087815404 25.72287492752075, 111.20216812193394 -0.1425861269235611" stroke="#000000" stroke-width="1" fill="none"></path></g><g transform="translate(1358.5767575673758 323) rotate(0 82 12.5)"><text x="82" y="20" font-family="Cascadia, Segoe UI Emoji" font-size="20px" fill="#000000" text-anchor="middle" style="white-space: pre;" direction="ltr">Mining Process</text></g><g transform="translate(1130.0767575673758 553) rotate(0 107.5 22)"><path d="M26.145719731591456 8.816083839046943 C35.06270969832389 5.959870421630969, 51.52103522656839 3.153439859184389, 65.8010306145833 1.3540582668941425 C80.08102600259821 -0.4453233253961042, 96.35283462257806 -2.361678558863216, 111.82569205968092 -1.980205714694538 C127.29854949678378 -1.59873287052586, 145.0312539925807 1.6774674458396248, 158.63817523720041 3.6428953319062103 C172.24509648182013 5.608323217972796, 184.30173857116372 7.173648770015587, 193.46721952739918 9.812361601704975 C202.63270048363464 12.451074433394362, 210.63669204088288 16.49679540496516, 213.63106097461315 19.47517232204254 C216.62542990834342 22.45354923911992, 215.3049716905326 25.189155423408756, 211.43343312978078 27.682623104169263 C207.56189456902896 30.17609078492977, 200.18692582130222 32.122503966291916, 190.40182961010223 34.43597840660558 C180.61673339890223 36.74945284691924, 166.80859702926284 39.710381740504744, 152.72285586258087 41.563469746051226 C138.6371146958989 43.41655775159771, 121.88892547739053 45.43418816010292, 105.88738261001032 45.55450643988447 C89.88583974263011 45.67482471966602, 70.85509724522318 43.94578456805416, 56.71359865829959 42.28537942474052 C42.572100071376006 40.62497428142688, 30.25187399603633 38.3603247687836, 21.038391088468813 35.59207558000264 C11.824908180901295 32.82382639122169, 4.723801383839119 28.71450391262984, 1.4327012128944716 25.675884292054796 C-1.8583989580501759 22.637264671479752, -2.399030514649771 20.26510237010773, 1.2917900628009278 17.360357856552376 C4.982610640251627 14.455613342997024, 17.716606830230724 10.43042405338059, 23.577624677598664 8.247417210722679 C29.438642524966603 6.0644103680647685, 31.813123581295528 5.190539273118244, 36.457897147008566 4.262316800604914 C41.102670712721604 3.334094328091585, 50.16910728412088 2.139724164000376, 51.4462660718769 2.6780823756427026 M94.83641203761476 -2.526982314782529 C109.42255996655484 -3.230525704443382, 125.76372688406488 -3.1160254008954, 140.71278438347557 -1.4606507098086396 C155.66184188288625 0.19472398127812096, 172.96912794219116 4.951869270707091, 184.53075703407885 7.405265831738035 C196.09238612596653 9.858662392768979, 205.55519000774 10.054380547041806, 210.08255893480174 13.259728656377023 C214.60992786186347 16.46507676571224, 213.04254408352372 23.683488279813844, 211.69497059644925 26.637354487749338 C210.34739710937478 29.591220695684832, 209.7923345047896 28.37664402177253, 201.99711801235492 30.98292590398999 C194.20190151992023 33.589207786207446, 178.27258110745657 40.332956763877824, 164.92367164184103 42.27504578105409 C151.57476217622548 44.217134798230354, 136.5000634474928 42.039069141432776, 121.9036612186617 42.6354600070476 C107.3072589898306 43.23185087266242, 91.71831519372489 46.830811525099165, 77.34525826885442 45.853390974743036 C62.97220134398395 44.87597042438691, 47.522528694944796 39.32935009845075, 35.66531966943886 36.77093670491084 C23.80811064393292 34.21252331137092, 11.750929727687726 33.71522462200617, 6.202004115818795 30.50291061350353 C0.6530785039498639 27.29059660500089, 1.5081039129798035 20.835549079473548, 2.3717659982252712 17.497052653894993 C3.235428083470739 14.158556228316439, 3.659809213449914 13.172455380129312, 11.383976627291602 10.471932060032206 C19.10814404113329 7.771408739935099, 35.046095539467764 2.728145562609396, 48.716770481275404 1.2939127333123572 C62.387445423083044 -0.14032009598468131, 86.0372926173473 2.021738600884462, 93.40802627813744 1.8665350842499748 C100.77875993892758 1.7113315676154877, 93.01308626252613 0.5200390711788524, 92.94117244601622 0.36269163350543465 C92.86925862950632 0.20534419583201688, 92.48174832567054 1.0292199251080227, 92.97654337907802 0.9224504582094681" stroke="#000000" stroke-width="1" fill="none"></path></g><g transform="translate(1125.5767575673758 608) rotate(0 107.5 22)"><path d="M69.60396691642514 1.6378461203361852 C83.15920199587252 -0.01477385931148345, 101.90203270357358 -1.0925595179354861, 117.8286533833599 -1.0465196470027394 C133.75527406314623 -1.0004797760699926, 151.83074398013156 0.0026488629274903364, 165.16369099514313 1.9140853459326657 C178.4966380101547 3.825521828937841, 189.7141698614623 7.697314442665403, 197.8263354734294 10.422099251028312 C205.9385010853965 13.14688405939122, 212.16770932859663 15.021969190553362, 213.83668466694579 18.262794196110114 C215.50566000529494 21.50361920166687, 212.93881599034506 26.716628435029378, 207.84018750352425 29.86704928436883 C202.74155901670343 33.01747013370828, 193.9602331064607 34.732628441180466, 183.24491374602098 37.165319292146826 C172.52959438558128 39.598010143113186, 157.6078826665182 43.11329751586584, 143.54827134088595 44.463194390166976 C129.48866001525369 45.81309126446811, 114.14547047973917 46.17860518379662, 98.88724579222736 45.26470053795365 C83.62902110471555 44.35079589211068, 65.1644606820566 40.61137308575904, 51.99892321581505 38.97976651510916 C38.833385749573495 37.34815994445928, 28.626744136910997 38.06198822826448, 19.894020994778046 35.47506111405436 C11.161297852645095 32.88813399984424, 1.8621184489394316 26.917694357953405, -0.39741563698265736 23.45820382984843 C-2.6569497229047463 19.998713301743454, 1.548249855320833 17.249054720440743, 6.336816479245513 14.718117945424513 C11.125383103170194 12.187181170408284, 17.638685115386153 10.310220601453473, 28.333984106565424 8.272583179751049 C39.029283097744695 6.2349457580486245, 59.264429452535545 3.9840383938719777, 70.50861042632114 2.492293415209968 C81.75279140010673 1.0005484365479582, 87.03311774842169 -0.6044078036142828, 95.79906994927899 -0.6778866922210085 C104.56502215013629 -0.7513655808277342, 123.09673475904029 1.877569136736999, 123.1043236314649 2.0514200835696137 M89.73996338648152 1.9972072655711877 C103.47225025131789 1.5624319405954192, 120.01436980788226 0.3069384974875735, 134.47159086163128 0.896456286967318 C148.92881191538032 1.4859740764470626, 164.42011604498566 3.9505047140370824, 176.4832897089757 5.534314002449655 C188.54646337296572 7.118123290862227, 200.68020157918423 7.8562252917432485, 206.85063284557143 10.399312017442755 C213.02106411195862 12.942398743142261, 214.46555693172834 16.795867481095375, 213.50587730729882 20.792834356646697 C212.5461976828693 24.78980123219802, 207.66463843583642 31.044038946498343, 201.09255509899432 34.38111327075068 C194.52047176215223 37.718187595003016, 185.75195767023658 38.98768159966685, 174.07337728624626 40.81528030216072 C162.39479690225593 42.642879004654596, 146.3362270547175 44.75495485189327, 131.02107279505236 45.346705485713926 C115.70591853538723 45.938456119534585, 97.9278144118562 45.78900439325868, 82.18245172825542 44.36578410508469 C66.43708904465463 42.942563816910706, 48.1187149798891 39.30295035890788, 36.54889669344766 36.80738375667002 C24.97907840700622 34.31181715443216, 18.48377237852981 31.575785852902946, 12.76354200960678 29.392384491657545 C7.04331164068375 27.208983130412143, 2.5666938482021564 26.080160308890246, 2.2275144799094733 23.706975589197608 C1.8883351116167901 21.33379086950497, 4.297731072508836 18.466080460828003, 10.728465799850682 15.153276173501721 C17.159200527192528 11.84047188617544, 28.10501484397475 6.452894168158856, 40.811922843960545 3.8301498652399175 C53.51883084394634 1.2074055623209783, 79.38637029411039 -0.26542268046798334, 86.96991379976544 -0.5831896440119131 C94.55345730542048 -0.9009566075558428, 85.86950668110794 1.2045313496992986, 86.31318387789081 1.923548083976339 C86.75686107467368 2.6425648182533794, 88.66933022085537 3.5212540644528283, 89.63197698046268 3.7309107616503283" stroke="#000000" stroke-width="1" fill="none"></path></g><g transform="translate(1128.5767575673758 659) rotate(0 107.5 22)"><path d="M18.089693273844276 9.494282629490653 C24.529928997705994 7.306990616240435, 38.01182006633161 6.413814361637199, 51.027360579320764 4.881775195450636 C64.04290109230992 3.349736029264074, 80.4938952014531 0.932582455849707, 96.1829363517792 0.3020476323712806 C111.87197750210531 -0.32848719110714575, 130.56035267866164 0.33083431892800874, 145.16160748127743 1.0985662545800778 C159.7628622838932 1.866298190232147, 172.90970296580224 2.889632912420788, 183.79046516747388 4.908439246283695 C194.67122736914553 6.927245580146602, 205.39467852585722 10.190188390064218, 210.4461806913073 13.211404257757522 C215.49768285675736 16.232620125450826, 215.8783919542114 19.440872914955534, 214.09947816017424 23.035734452443513 C212.3205643661371 26.630595989931493, 207.91891850675748 31.937976691687336, 199.77269792708438 34.780573482685405 C191.62647734741128 37.62317027368347, 179.0493658063153 38.26904192280308, 165.22215468213568 40.09131519843193 C151.39494355795605 41.913588474060774, 132.23225081263024 45.519350817952045, 116.8094311820066 45.714213136458476 C101.38661155138297 45.909075454964906, 87.22936899116362 42.40819023545836, 72.6852368983939 41.26048910947052 C58.14110480562417 40.112787983482676, 40.776052136629055 40.96199097928967, 29.544638625388245 38.82800638053142 C18.313225114147436 36.694021781773166, 9.886056725905465 31.35696217457739, 5.296755830949024 28.45658151692101 C0.7074549359925824 25.556200859264628, -0.01348235761345018 24.59605842432031, 2.0088332556495914 21.425722434593126 C4.0311488689126325 18.25538644486594, 12.635603463626541 11.880102800990631, 17.430649510527275 9.43456557855789 C22.225695557428008 6.98902835612515, 25.173352354141745 7.980957670398981, 30.779109537053998 6.752499099996683 C36.384866719966254 5.5240405295943855, 49.9906249316561 1.9217765873468844, 51.0651926080008 2.0638141561441046 M178.62049991933088 4.815107981670796 C191.35076767047852 5.9845406157636845, 199.70390293289267 9.215340283243659, 205.80987038866357 12.369058132359841 C211.91583784443446 15.522775981476023, 216.1408210258242 20.700856265668428, 215.2563046539562 23.737415076367885 C214.37178828208818 26.773973887067342, 207.9274129766789 28.290132645692573, 200.50277215745544 30.588410996556583 C193.07813133823197 32.88668934742059, 182.21856073975337 35.09002745520511, 170.70845973861537 37.52708518155194 C159.19835873747738 39.96414290789877, 146.10217837089553 43.90057796295503, 131.44216615062743 45.21075735463755 C116.78215393035934 46.52093674632007, 97.86893209143673 46.28905693986301, 82.74838641700684 45.38816153164703 C67.62784074257695 44.48726612343105, 52.6936476326285 42.54542052477952, 40.71889210404807 39.805384905341654 C28.744136575467635 37.065349285903785, 18.036854117692222 31.4787482655468, 10.89985324552427 28.947947815019802 C3.762852373356317 26.417147364492806, -1.8700536965437682 27.04554333024213, -2.1031131289596487 24.620582202179676 C-2.336172561375529 22.195621074117224, 1.8910042254992163 17.833824027957995, 9.501496651028987 14.39818104664508 C17.111989076558757 10.962538065332167, 30.533624490168457 6.455295085442823, 43.55984142421897 4.006724314302197 C56.58605835826949 1.5581535431615707, 72.9948431176199 -0.08403760710287797, 87.6587982553321 -0.293243580198677 C102.32275339304431 -0.502449553294476, 117.14716305221432 2.039793824899254, 131.5435722504922 2.7514884757274025 C145.93998144877006 3.463183126555551, 166.20337536379202 3.2333802012693735, 174.03725344499932 3.976924324770213 C181.87113152620663 4.720468448271052, 177.7977600515134 6.4782233732177295, 178.54684073773598 7.2127532167324375 C179.29592142395856 7.947283060247146, 179.84080240936663 8.739392825265266, 178.5317375623348 8.38410338585846" stroke="#000000" stroke-width="1" fill="none"></path></g><g><g transform="translate(1346.0767575673758 575) rotate(0 -1.4280792795866546 54.53392088934777)"><path d="M1.9605289965867998 2.295194241404533 C1.4295648127794267 19.389744342366853, -2.173363380630811 87.77625357011954, -3.0787731617689134 104.94070825278759 M-0.41970804736018197 1.0728458766639237 C-1.250039031157891 19.779260310779016, -4.054503392030796 90.17342994814118, -4.816687555760145 107.99499590203166" stroke="#000000" stroke-width="1" fill="none"></path></g></g><g><g transform="translate(1130.0767575673758 569) rotate(0 -2.4536925875395355 55.73072028204797)"><path d="M1.6510920077562332 0.6623064011335371 C0.8002486735582353 19.10372132956982, -2.981054763992627 91.8054873118798, -4.207710883021354 110.58796567618847 M-0.8971251158416274 -1.4464667911827567 C-2.2209839316705864 17.26463432913025, -6.740655812074741 93.22329534019032, -6.5584771828353405 112.90790735527872" stroke="#000000" stroke-width="1" fill="none"></path></g></g><g transform="translate(1220.0767575673758 521) rotate(0 11.5 12.5)"><text x="0" y="20" font-family="Cascadia, Segoe UI Emoji" font-size="20px" fill="#000000" text-anchor="start" style="white-space: pre;" direction="ltr">DB</text></g><g><g transform="translate(1030.0767575673758 431.5560667134315) rotate(0 53.70250571309407 64.74732671576317)"><path d="M1.2863520592451092 0.7002518206834791 C19.00828579005723 21.78365983159202, 91.03544220810754 106.73226745480585, 108.8648781768754 128.656203826717 M-1.459866750687361 -1.3879224295914172 C15.682960965555157 19.749056292135094, 88.81109196087344 109.44148321727204, 106.76564315734056 130.8825758611177" stroke="#000000" stroke-width="1" fill="none"></path></g><g transform="translate(1030.0767575673758 431.5560667134315) rotate(0 53.70250571309407 64.74732671576317)"><path d="M28.3064652040229 15.997707891155478 C13.22413474352551 9.54624958745597, 8.18933149512947 4.053256114328482, -1.6881617397069935 1.9446626037359236 M25.86090419735767 14.32235515384793 C22.69966250286174 12.814334310879556, 14.347617520715179 9.13453565383312, 2.892682111263275 -0.14180721044540423" stroke="#000000" stroke-width="1" fill="none"></path></g><g transform="translate(1030.0767575673758 431.5560667134315) rotate(0 53.70250571309407 64.74732671576317)"><path d="M12.620726642243824 29.22939743396733 C3.4595264497658196 17.467182437922645, 4.549598404840568 6.807556430305166, -1.6881617397069935 1.9446626037359236 M10.175165635578594 27.55404469665978 C10.401889527112841 22.98232404700509, 5.560669185483937 16.340972671250405, 2.892682111263275 -0.14180721044540423" stroke="#000000" stroke-width="1" fill="none"></path></g><g transform="translate(1030.0767575673758 431.5560667134315) rotate(0 53.70250571309407 64.74732671576317)"><path d="M81.91669352332767 116.022357329567 C87.55226608380018 120.87010611608414, 102.77099027944769 127.15290455972054, 103.79112935838846 132.12698664417013 M79.47113251666244 114.34700459225945 C88.19938586869937 119.25117996041308, 91.45681550370985 122.32135400477868, 108.37197320935873 130.0405168299888" stroke="#000000" stroke-width="1" fill="none"></path></g><g transform="translate(1030.0767575673758 431.5560667134315) rotate(0 53.70250571309407 64.74732671576317)"><path d="M97.75098999999588 102.96881154787181 C97.4046811659333 113.05912147977105, 106.44052213473259 124.4389919267934, 103.79112935838846 132.12698664417013 M95.30542899333065 101.29345881056426 C100.6108120202801 109.22242878847787, 100.32416637846514 115.2142829307236, 108.37197320935873 130.0405168299888" stroke="#000000" stroke-width="1" fill="none"></path></g></g><g><g transform="translate(1396.8590407327624 436.0608891414472) rotate(0 -40.90157909521213 57.75832156015656)"><path d="M-0.5143573790788651 1.85495448410511 C-13.791662825797173 20.82156740337022, -66.51281097756909 93.65712572283586, -80.19508163424834 112.28142195102023 M-4.238104169815779 0.3936188225448136 C-17.64966313273129 19.848751386547164, -67.89830126615452 95.74873874914684, -81.28880081134542 115.12302429776834" stroke="#000000" stroke-width="1" fill="none"></path></g><g transform="translate(1396.8590407327624 436.0608891414472) rotate(0 -40.90157909521213 57.75832156015656)"><path d="M-5.996663438546973 33.742992791912854 C-8.121033460017593 22.210729799724774, -3.9509271652859876 15.821715326913345, 1.1579269558191299 4.692084345221519 M-7.952392043936568 28.767482030771077 C-4.7854228151848295 22.21284741856761, -3.5652996103430468 13.661897727600167, -1.4002877831459046 1.1084197640419005" stroke="#000000" stroke-width="1" fill="none"></path></g><g transform="translate(1396.8590407327624 436.0608891414472) rotate(0 -40.90157909521213 57.75832156015656)"><path d="M-22.655697178325113 21.759813028478895 C-20.228385653551555 13.65634995361724, -11.376644031453758 10.634930420043817, 1.1579269558191299 4.692084345221519 M-24.611425783714708 16.784302267337118 C-17.05512431134032 13.64635512996134, -11.213982577377145 8.419397489769246, -1.4002877831459046 1.1084197640419005" stroke="#000000" stroke-width="1" fill="none"></path></g><g transform="translate(1396.8590407327624 436.0608891414472) rotate(0 -40.90157909521213 57.75832156015656)"><path d="M-71.37098963031332 89.02799129271277 C-78.4520136796405 93.73394688119207, -78.60975340796804 103.63973073148608, -79.61651647644743 117.96015415888475 M-73.32671823570291 84.05248053157099 C-75.55262059683699 93.49597226193377, -78.60430740394497 101.02883938156107, -82.17473121541246 114.37648957770513" stroke="#000000" stroke-width="1" fill="none"></path></g><g transform="translate(1396.8590407327624 436.0608891414472) rotate(0 -40.90157909521213 57.75832156015656)"><path d="M-54.362166563646156 100.50927781786535 C-66.0986152153685 101.92619383185594, -71.03629045434292 108.60542820518832, -79.61651647644743 117.96015415888475 M-56.31789516903575 95.53376705672358 C-63.03986093758776 101.69784422493028, -70.8095936876571 106.04593853002167, -82.17473121541246 114.37648957770513" stroke="#000000" stroke-width="1" fill="none"></path></g></g><g transform="translate(1356.5767575673758 257.5) rotate(0 111.5 113.5)"><path d="M112.97614601254463 -0.455828458070755 C137.96732125625013 33.081080714017155, 168.17944372713563 56.97831903859973, 219.18156459927556 114.3047716319561 M110.84004698693752 -0.09189353883266449 C145.36048136666417 34.56658051118255, 176.24990846157073 67.4856374527514, 224.23562107980248 114.66514314711094 M220.96799495816228 115.08462545275688 C198.3277700692415 147.8228780680895, 169.5871827803552 177.08301559552552, 112.37876632809639 230.4294235408306 M224.70599232614038 115.9555751234293 C196.06043275117872 138.76472995400428, 165.90409789279101 169.28516566351055, 110.28282557427883 225.27329601347446 M110.08389785885811 230.8335449397564 C87.69674011215567 202.670081423074, 59.26286596998572 175.67508168727161, -0.05290767550468445 112.093595713377 M111.62392435967922 225.45276607573032 C81.4205631096661 190.13637206897138, 45.59422883585094 156.26666980654, -0.9368308931589127 112.23595632612705 M0.9381125271320343 117.62979719042778 C32.915754035413265 82.30735972672701, 70.03111316293479 44.218775758147245, 112.53205040097237 2.6049053370952606 M-0.596098318696022 115.73805822432041 C29.929000503718854 88.18718755871058, 54.05805141419172 62.29834058761597, 112.12108527123928 0.9071279913187027" stroke="#000000" stroke-width="1" fill="none"></path></g><g transform="translate(1342.5767575673758 244.5) rotate(0 111.5 113.5)"><path d="M108.70450046658516 2.942022532224655 C140.12331357821822 27.760108400136236, 167.13248249590396 60.53050122186542, 222.63144615292546 115.53724786639214 M112.20698700845242 -0.5301149934530258 C133.0614347501099 23.54283429250121, 159.04253495693206 49.170169079452755, 222.1248541921377 113.83670867979527 M226.95523002743718 116.90865442156792 C182.41551335155964 161.68578843414784, 136.0427088700235 205.77230175599456, 109.70373943448067 224.20624181628227 M224.56678305566308 112.18487991392612 C194.13216576814648 147.12180648446082, 164.9427355261147 173.76171715334058, 110.27186642587185 228.26424326002598 M113.04778698086739 228.72535344958305 C85.61509613499045 203.79499755218626, 65.02195723757148 178.80400761157273, -0.041319578886032104 111.46260759234428 M113.47124157845974 225.30223383009434 C84.86712581470609 196.5575723682344, 58.114030295163396 169.65239554315806, -0.15218152105808258 112.04579700529575 M-2.0598208606243134 116.38723680377007 C39.10958937972785 71.59524874001741, 74.6704437312484 38.56565291345119, 109.3855269253254 -3.2297876179218292 M1.808546170592308 114.33220066130161 C30.91898060053587 82.1180786243081, 61.96325100868941 50.70569959640502, 111.97526894509792 -1.7927511781454086" stroke="#000000" stroke-width="1" fill="none"></path></g><g transform="translate(790.0767575673759 10) rotate(0 400 366.5)"><path d="M-0.4358797907829285 -0.3533808827400208 C298.09383820295335 2.6265477538108826, 594.2279629349708 2.573810708522797, 798.6731919407845 -1.5518263936042787 M798.6064080119133 0.3211430668830872 C802.5540410558581 245.63945831432937, 803.0361062566637 495.05358655005693, 799.0498692393303 731.638051712513 M799.4990922093391 732.880037009716 C491.5557603240013 732.7659401297569, 180.27816330194474 734.0020336508751, -0.030007445812225343 734.1105831980706 M0.5585881114006043 733.4067254185677 C-1.801889886081219 543.9396085344255, -3.543884743869305 351.85463276356455, -1.1076308369636536 -0.8481310725212098" stroke="#495057" stroke-width="2.5" fill="none" stroke-dasharray="12 8"></path></g><g transform="translate(1339.0767575673758 147) rotate(0 112.5 21)"><path d="M-1.8198857301731108 1.4269268137607574 C59.6707153493526 2.57367311357379, 116.13829448161269 2.200988266588926, 225.9881250676174 -3.3179650396938323 M-0.40596342054271695 0.5366549825086593 C55.886423453121424 -4.755252903421163, 109.77749481604337 -4.758164049752951, 225.75844067909716 -1.1254033002367019 M225.72869899868965 -0.970634251832962 C227.37689204245805 13.946408604085446, 224.83827872306108 19.75819633305073, 222.66656997799873 44.99940797686577 M226.19288884103298 1.9372455030679703 C225.8083594468236 12.366984497010709, 225.38593179255724 26.40525925755501, 224.5628129094839 42.541953697800636 M222.18924076677513 44.53737300235939 C148.34003237683987 42.59958131498837, 74.693062914639 43.87629230784726, 1.1384962325344086 39.42991266843605 M225.396132085866 40.67879683645153 C143.9641848664224 40.10977378419471, 64.26402469873666 39.325331374191045, -0.29963761722850796 42.33158676269054 M1.233484536409378 39.532057017087936 C-2.2666565397381784 31.01729582697153, -0.7494226911664009 15.903138884901999, 1.52639701962471 0.7105343043804169 M-1.732004538178444 40.408937588334084 C1.8042577013373375 25.69377579241991, -1.8604490056633949 11.724845075607298, -0.18266762793064117 -1.5490678399801254" stroke="#495057" stroke-width="1" fill="none"></path></g><g transform="translate(1393.0767575673758 153.5) rotate(0 58.5 12.5)"><text x="58.5" y="20" font-family="Cascadia, Segoe UI Emoji" font-size="20px" fill="#495057" text-anchor="middle" style="white-space: pre;" direction="ltr">Supervisor</text></g></svg>